<svg width="113" height="28" viewBox="0 0 113 28" fill="none" xmlns="http://www.w3.org/2000/svg">
<path fill-rule="evenodd" clip-rule="evenodd" d="M0 16.1875C0 15.3418 0.702664 14.6562 1.56944 14.6562H10.9861C11.5385 14.6562 12.0501 14.9395 12.3334 15.4021C12.6167 15.8647 12.6299 16.4386 12.3681 16.9131L7.72257 25.3348C7.31179 26.0795 6.36005 26.3583 5.59678 25.9575C4.83352 25.5567 4.54777 24.6282 4.95854 23.8835L8.35917 17.7187H1.56944C0.702664 17.7187 0 17.0331 0 16.1875Z" fill="url(#paint0_linear)"/>
<path fill-rule="evenodd" clip-rule="evenodd" d="M30.2678 16.1875C30.2678 15.3418 29.5652 14.6562 28.6984 14.6562H19.3938C18.8413 14.6562 18.3295 14.9397 18.0463 15.4025C17.763 15.8654 17.7501 16.4394 18.0122 16.9139L22.6645 25.3356C23.0758 26.08 24.0277 26.3583 24.7907 25.9571C25.5537 25.5558 25.8389 24.6271 25.4277 23.8827L22.0226 17.7187H28.6984C29.5652 17.7187 30.2678 17.0331 30.2678 16.1875Z" fill="url(#paint1_linear)"/>
<path fill-rule="evenodd" clip-rule="evenodd" d="M15.0988 16.4063C15.6818 16.4047 16.2177 16.7185 16.4904 17.2213L21.1174 25.7523C21.5229 26.4998 21.2304 27.4264 20.4643 27.8219C19.6982 28.2175 18.7485 27.9322 18.3431 27.1847L15.1125 21.2284L11.929 27.1772C11.5278 27.9269 10.5798 28.2173 9.8114 27.8259C9.04305 27.4345 8.74538 26.5095 9.14655 25.7598L13.7119 17.2288C13.9818 16.7246 14.5158 16.4078 15.0988 16.4063Z" fill="url(#paint2_linear)"/>
<path fill-rule="evenodd" clip-rule="evenodd" d="M0 11.8125C0 12.6582 0.702664 13.3438 1.56944 13.3438H10.9861C11.537 13.3438 12.0475 13.062 12.3313 12.6014C12.615 12.1408 12.6305 11.5687 12.3721 11.0941L7.72654 2.56307C7.31986 1.81626 6.36966 1.53249 5.60421 1.92926C4.83875 2.32603 4.5479 3.25308 4.95457 3.99989L8.3751 10.2813H1.56944C0.702664 10.2813 0 10.9669 0 11.8125Z" fill="url(#paint3_linear)"/>
<path fill-rule="evenodd" clip-rule="evenodd" d="M30.2678 11.8125C30.2678 12.6582 29.5652 13.3438 28.6984 13.3438H19.3938C18.8428 13.3438 18.3322 13.0618 18.0484 12.601C17.7647 12.1402 17.7495 11.5679 18.0083 11.0933L22.6606 2.56226C23.0677 1.81568 24.0181 1.53247 24.7833 1.92969C25.5485 2.3269 25.8388 3.25413 25.4316 4.0007L22.0066 10.2813H28.6984C29.5652 10.2813 30.2678 10.9669 30.2678 11.8125Z" fill="url(#paint4_linear)"/>
<path fill-rule="evenodd" clip-rule="evenodd" d="M15.0988 11.5937C15.6818 11.5953 16.2177 11.2815 16.4904 10.7787L21.1174 2.24766C21.5229 1.5002 21.2304 0.57361 20.4643 0.178075C19.6982 -0.21746 18.7485 0.0678358 18.3431 0.8153L15.1125 6.77156L11.929 0.822793C11.5278 0.0731535 10.5798 -0.21726 9.8114 0.174136C9.04305 0.565534 8.74538 1.49053 9.14655 2.24017L13.7119 10.7712C13.9818 11.2754 14.5158 11.5922 15.0988 11.5937Z" fill="url(#paint5_linear)"/>
<path fill-rule="evenodd" clip-rule="evenodd" d="M96.717 14.5802C96.7356 14.371 96.745 14.1592 96.745 13.9453C96.745 9.92835 93.4074 6.672 89.2902 6.672C85.173 6.672 81.8353 9.92835 81.8353 13.9453C81.8353 17.9622 85.173 21.2185 89.2902 21.2185C90.9136 21.2185 92.4159 20.7122 93.6401 19.8527C93.7089 20.6212 94.3701 21.224 95.1756 21.224C96.0269 21.224 96.717 20.5507 96.717 19.7201V14.5802ZM93.4941 13.9453C93.4941 16.2104 91.6119 18.0467 89.2902 18.0467C86.9685 18.0467 85.0863 16.2104 85.0863 13.9453C85.0863 11.6801 86.9685 9.8438 89.2902 9.8438C91.6119 9.8438 93.4941 11.6801 93.4941 13.9453Z" fill="#30302F"/>
<path fill-rule="evenodd" clip-rule="evenodd" d="M50.7828 8.64075C51.7115 8.64075 52.4644 9.37526 52.4644 10.2813L52.4644 19.578C52.4644 20.4841 51.7115 21.2186 50.7828 21.2186C49.8541 21.2186 49.1013 20.4841 49.1013 19.578L49.1013 10.2813C49.1013 9.37526 49.8541 8.64075 50.7828 8.64075Z" fill="#30302F"/>
<path d="M52.8006 5.63301C52.8006 6.6901 51.9222 7.54703 50.8388 7.54703C49.7553 7.54703 48.877 6.6901 48.877 5.63301C48.877 4.57593 49.7553 3.71899 50.8388 3.71899C51.9222 3.71899 52.8006 4.57593 52.8006 5.63301Z" fill="#30302F"/>
<path fill-rule="evenodd" clip-rule="evenodd" d="M78.5843 8.64075C79.513 8.64075 80.2659 9.37526 80.2659 10.2813L80.2659 19.578C80.2659 20.4841 79.513 21.2186 78.5843 21.2186C77.6556 21.2186 76.9028 20.4841 76.9028 19.578L76.9028 10.2813C76.9028 9.37526 77.6556 8.64075 78.5843 8.64075Z" fill="#30302F"/>
<path d="M80.6022 5.63301C80.6022 6.6901 79.7239 7.54703 78.6404 7.54703C77.5569 7.54703 76.6786 6.6901 76.6786 5.63301C76.6786 4.57593 77.5569 3.71899 78.6404 3.71899C79.7239 3.71899 80.6022 4.57593 80.6022 5.63301Z" fill="#30302F"/>
<path fill-rule="evenodd" clip-rule="evenodd" d="M102.9 10.9344C102.239 11.5561 101.678 12.6228 101.678 14.4165V19.5778C101.678 19.5778 101.678 19.578 99.996 19.578C98.3145 19.578 98.3145 19.5779 98.3145 19.5779V14.4165C98.3145 11.9153 99.1236 9.93002 100.564 8.57351C101.987 7.234 103.851 6.672 105.657 6.672C107.463 6.672 109.328 7.234 110.75 8.57351C112.191 9.93001 113 11.9153 113 14.4165V19.5778C113 19.5779 113 19.578 111.318 19.578C109.637 19.578 109.637 19.5779 109.637 19.5779V14.4165C109.637 12.6228 109.075 11.5562 108.415 10.9344C107.736 10.2957 106.77 9.95317 105.657 9.95317C104.544 9.95317 103.578 10.2957 102.9 10.9344ZM99.996 21.2185C99.0673 21.2185 98.3145 20.484 98.3145 19.5779L99.996 19.578L101.678 19.578C101.678 20.484 100.925 21.2185 99.996 21.2185ZM111.318 21.2185C110.39 21.2185 109.637 20.484 109.637 19.5779L111.318 19.578L113 19.5778C113 20.4839 112.247 21.2185 111.318 21.2185Z" fill="#30302F"/>
<path fill-rule="evenodd" clip-rule="evenodd" d="M60.3743 9.84392C58.7738 9.84392 57.8708 11.0047 57.8453 12.1464V19.6874C57.8453 20.5935 57.0924 21.328 56.1637 21.328C55.235 21.328 54.4822 20.5935 54.4822 19.6874V12.1173L54.4824 12.1037C54.5287 9.38538 56.7171 6.56274 60.3743 6.56274C62.1755 6.56274 63.6373 7.23672 64.662 8.24475C65.6692 7.23743 67.1062 6.56274 68.8942 6.56274C72.5865 6.56274 74.8521 9.39471 74.8521 12.1309V19.6874C74.8521 20.5935 74.0992 21.328 73.1705 21.328C72.2418 21.328 71.489 20.5935 71.489 19.6874V12.1309C71.489 11.0749 70.5967 9.84392 68.8942 9.84392C67.2936 9.84392 66.3906 11.0047 66.3651 12.1464V19.6874C66.3651 20.5935 65.6123 21.328 64.6836 21.328C64.6781 21.328 64.6726 21.328 64.6671 21.328C64.6616 21.328 64.6562 21.328 64.6507 21.328C63.722 21.328 62.9691 20.5935 62.9691 19.6874V12.1309C62.9691 11.0749 62.0768 9.84392 60.3743 9.84392Z" fill="#30302F"/>
<path fill-rule="evenodd" clip-rule="evenodd" d="M35.9 19.3265L35.9066 19.3378L35.9139 19.3487C36.1074 19.6382 36.4014 19.888 36.7611 20.1079C38.0434 20.9328 39.6639 21.328 41.5903 21.328C43.3188 21.328 44.75 20.9586 45.8391 20.174L45.8403 20.1731C46.957 19.363 47.5317 18.2759 47.5317 16.9454C47.5317 16.1436 47.366 15.4456 46.9994 14.8821C46.6487 14.2964 46.076 13.8362 45.3287 13.4832C44.5871 13.1327 43.587 12.8317 42.3445 12.5726C41.1662 12.3194 40.425 12.0694 40.0559 11.8429C39.7612 11.635 39.6217 11.3687 39.6217 11.0002C39.6217 10.571 39.7846 10.2564 40.1225 10.0125C40.5017 9.75185 41.0242 9.60209 41.7276 9.60209C42.3332 9.60209 42.8029 9.68031 43.154 9.81736L43.157 9.81854L43.1601 9.81967C43.5694 9.97279 44.0118 10.1883 44.4879 10.4697C44.7678 10.6371 45.0054 10.7665 45.195 10.8506C45.4122 10.9469 45.64 10.9993 45.8749 10.9993C46.261 10.9993 46.5832 10.8292 46.8219 10.5427C47.0793 10.256 47.2022 9.90626 47.2022 9.52076C47.2022 8.79985 46.7812 8.21595 46.1029 7.764C45.5266 7.36802 44.8668 7.07479 44.1291 6.88056C43.3933 6.66863 42.6381 6.56274 41.8649 6.56274C40.7873 6.56274 39.8086 6.74524 38.9373 7.12056C38.0655 7.49608 37.3667 8.03701 36.8575 8.74722C36.3445 9.44415 36.0882 10.2364 36.0882 11.1098C36.0882 12.24 36.4783 13.1785 37.2826 13.8753L37.2873 13.8794L37.2921 13.8833C38.0892 14.5356 39.3366 15.0204 40.9719 15.3726C41.8988 15.572 42.5764 15.758 43.0192 15.9279L43.0264 15.9306L43.0337 15.9331C43.4825 16.0881 43.719 16.2462 43.8244 16.3725L43.8311 16.3804L43.8381 16.3881C43.9492 16.5089 44.0257 16.6882 44.0257 16.9728C44.0257 17.3879 43.8581 17.6887 43.4898 17.92C43.0953 18.1677 42.5054 18.3161 41.6727 18.3161C40.9187 18.3161 40.3145 18.2283 39.8466 18.0678C39.3601 17.8943 38.8521 17.6676 38.3225 17.3862C38.0573 17.2353 37.8163 17.1155 37.6023 17.0322C37.3935 16.9509 37.1784 16.8914 36.9761 16.8914C36.5791 16.8914 36.2413 17.0558 35.9943 17.3569C35.7573 17.6459 35.6488 17.9926 35.6488 18.37C35.6488 18.7133 35.7299 19.0357 35.9 19.3265Z" fill="#30302F"/>
<defs>
<linearGradient id="paint0_linear" x1="12.3313" y1="15.5312" x2="2.5865" y2="21.2063" gradientUnits="userSpaceOnUse">
<stop stop-color="#373640" stop-opacity="0.7"/>
<stop offset="0.661458" stop-color="#373640"/>
</linearGradient>
<linearGradient id="paint1_linear" x1="18.1046" y1="15.3672" x2="27.3806" y2="21.5923" gradientUnits="userSpaceOnUse">
<stop stop-color="#373640" stop-opacity="0.7"/>
<stop offset="0.674209" stop-color="#373640"/>
</linearGradient>
<linearGradient id="paint2_linear" x1="15.134" y1="16.4609" x2="15.134" y2="27.9451" gradientUnits="userSpaceOnUse">
<stop stop-color="#003580" stop-opacity="0.7"/>
<stop offset="0.675563" stop-color="#003580"/>
</linearGradient>
<linearGradient id="paint3_linear" x1="12.3874" y1="12.5235" x2="2.69894" y2="6.84897" gradientUnits="userSpaceOnUse">
<stop stop-color="#003580" stop-opacity="0.7"/>
<stop offset="0.661458" stop-color="#003580"/>
</linearGradient>
<linearGradient id="paint4_linear" x1="18.1607" y1="12.7422" x2="27.6022" y2="6.40388" gradientUnits="userSpaceOnUse">
<stop stop-color="#003580" stop-opacity="0.7"/>
<stop offset="0.663874" stop-color="#003580"/>
</linearGradient>
<linearGradient id="paint5_linear" x1="15.134" y1="11.5938" x2="15.134" y2="0.109638" gradientUnits="userSpaceOnUse">
<stop stop-color="#373640" stop-opacity="0.7"/>
<stop offset="0.661458" stop-color="#373640"/>
</linearGradient>
</defs>
</svg>
